<svg xmlns="http://www.w3.org/2000/svg" width="0" height="0" aria-hidden="true">
  <symbol id="icon-chevron-down" viewBox="0 0 12 12">
    <path d="M2 4.5L6 8.5L10 4.5" stroke="currentColor" stroke-width="1.5" fill="none" stroke-linecap="round" stroke-linejoin="round"/>
  </symbol>
  <symbol id="icon-arrow-right" viewBox="0 0 16 16">
    <path d="M3 8H13M13 8L9 4M13 8L9 12" stroke="currentColor" stroke-width="1.5" fill="none" stroke-linecap="round" stroke-linejoin="round"/>
  </symbol>
  <symbol id="icon-instagram" viewBox="0 0 24 24">
    <rect x="3" y="3" width="18" height="18" rx="5" stroke="currentColor" stroke-width="1.6" fill="none"/>
    <circle cx="12" cy="12" r="4" stroke="currentColor" stroke-width="1.6" fill="none"/>
    <circle cx="17.2" cy="6.8" r="1" fill="currentColor"/>
  </symbol>
  <symbol id="icon-whatsapp" viewBox="0 0 24 24">
    <path d="M20 12a8 8 0 1 0-14.5 4.6L4 21l4.6-1.4A8 8 0 0 0 20 12z" stroke="currentColor" stroke-width="1.6" fill="none" stroke-linejoin="round"/>
    <path d="M9 9c0 4 2 6 6 6l1-2-2-1-1 1c-1 0-3-2-3-3l1-1-1-2-1 0z" stroke="currentColor" stroke-width="1.4" fill="none" stroke-linejoin="round"/>
  </symbol>
  <symbol id="icon-close" viewBox="0 0 16 16">
    <path d="M3 3L13 13M13 3L3 13" stroke="currentColor" stroke-width="1.5" stroke-linecap="round"/>
  </symbol>
  <symbol id="icon-arrow-left" viewBox="0 0 16 16">
    <path d="M13 8H3M3 8L7 4M3 8L7 12" stroke="currentColor" stroke-width="1.5" fill="none" stroke-linecap="round" stroke-linejoin="round"/>
  </symbol>
</svg>
